<svg id="clock" xmlns="http://www.w3.org/2000/svg" width="30.289" height="29.592" viewBox="0 0 30.289 29.592">
  <circle id="Ellipse_9" data-name="Ellipse 9" cx="11" cy="11" r="11" transform="translate(6.644 4.394)" fill="#f7734f" opacity="0.74"/>
  <path id="Path_191" data-name="Path 191" d="M15.144,0A14.99,14.99,0,0,0,0,14.8a14.99,14.99,0,0,0,15.144,14.8A14.99,14.99,0,0,0,30.289,14.8,14.99,14.99,0,0,0,15.144,0Zm0,27.743A13.116,13.116,0,0,1,1.893,14.8,13.116,13.116,0,0,1,15.144,1.85,13.116,13.116,0,0,1,28.4,14.8,13.116,13.116,0,0,1,15.144,27.743Z" transform="translate(0 0)" fill="#1c1c1c"/>
  <path id="Path_192" data-name="Path 192" d="M210.132,83.118h-2.338V95.292l7.356,7.356,1.653-1.653-6.671-6.671Z" transform="translate(-194.655 -79.17)" fill="#1c1c1c"/>
</svg>
