<svg xmlns="http://www.w3.org/2000/svg" width="45.017" height="33.244" viewBox="0 0 45.017 33.244">
  <g id="mudra_dhyana" transform="translate(1 -0.396)">
    <ellipse id="Ellipse_3" data-name="Ellipse 3" cx="11" cy="11.5" rx="11" ry="11.5" transform="translate(10.1 0.396)" fill="#f7734f" opacity="0.74"/>
    <path id="Path_168" data-name="Path 168" d="M29.081,29.306c2.39-.343,2.987,1.069,2.987,2.066a2.356,2.356,0,0,1-1.624,2.186,27.727,27.727,0,0,1-7.935.951A19.975,19.975,0,0,1,8.916,28.933C4.137,24.153,2.368,20.669,1,20.17V13H6.975c3.585,0,7.17,2.39,7.17,2.39h5.975a2.39,2.39,0,1,1,0,4.78h-4.78a2.111,2.111,0,0,0-2.39,2.39c0,4.63,4.979,7.17,10.754,7.17a22.289,22.289,0,0,0,13.144-3.585c5.586-3.807,6.012-5.554,7.169-5.975V13H38.042c-3.585,0-7.17,2.39-7.17,2.39H24.9a2.39,2.39,0,0,0,0,4.78h4.78c1.046,0,2.39.1,2.39,1.594,0,2.041-3.635,3.186-8.364,3.186a13.734,13.734,0,0,1-7.33-2.243,3.1,3.1,0,0,0-3.4.339" transform="translate(-1 -1.868)" fill="none" stroke="#231f20" stroke-miterlimit="10" stroke-width="2" opacity="0.8"/>
  </g>
</svg>
