<svg xmlns="http://www.w3.org/2000/svg" width="35.839" height="41.296" viewBox="0 0 35.839 41.296">
  <g id="version" transform="translate(-8.344 -0.903)">
    <g id="Group_129" data-name="Group 129" transform="translate(8.817 0.903)">
      <g id="Group_125" data-name="Group 125" transform="translate(13.527 0.332)">
        <circle id="Ellipse_4" data-name="Ellipse 4" cx="4.656" cy="4.656" r="4.656" transform="translate(-2 31.651)" fill="#f7734f" opacity="0.75"/>
        <circle id="Ellipse_5" data-name="Ellipse 5" cx="4.156" cy="4.156" r="4.156" transform="translate(-14 8)" fill="#f7734f" opacity="0.75"/>
      </g>
      <g id="Group_128" data-name="Group 128" transform="translate(0)">
        <g id="Group_127" data-name="Group 127">
          <g id="Group_126" data-name="Group 126">
            <path id="Path_176" data-name="Path 176" d="M65.332,39.991c-.184,0-.332.359-.332.8v5.53c0,.444.149.8.332.8s.333-.359.333-.8v-5.53C65.665,40.351,65.516,39.991,65.332,39.991Z" transform="translate(-46.32 -28.995)" fill="#1c1c1c"/>
            <path id="Path_183" data-name="Path 183" d="M44.183,14.041a4.489,4.489,0,1,0-6.273,4.117V21.12a1,1,0,0,1-.607.918l-9.14,3.886V18.017a.332.332,0,1,0-.665,0v8.41a.332.332,0,0,0,.332.332.327.327,0,0,0,.13-.027l9.6-4.083a1.66,1.66,0,0,0,1.012-1.53V18.382a4.383,4.383,0,0,0,1.995.06V21.12a3.651,3.651,0,0,1-2.227,3.366L27.7,29.011a.332.332,0,0,0-.2.306V32.67a4.357,4.357,0,0,0-1.995,0V29.317a.332.332,0,0,0-.2-.306L14.656,24.486A3.652,3.652,0,0,1,12.43,21.12V18.442a4.383,4.383,0,0,0,1.995-.06V21.12a1.659,1.659,0,0,0,1.012,1.53l9.6,4.083a.327.327,0,0,0,.13.027.333.333,0,0,0,.333-.332V9.765a4.357,4.357,0,0,0,1.995,0v3.117a.332.332,0,0,0,.665,0V9.557a4.489,4.489,0,1,0-3.325,0V25.925L15.7,22.038a1,1,0,0,1-.607-.918V18.158a4.493,4.493,0,1,0-3.325.093V21.12A4.314,4.314,0,0,0,14.4,25.1l10.441,4.439v3.34a4.489,4.489,0,1,0,3.325,0v-3.34L38.6,25.1a4.315,4.315,0,0,0,2.632-3.978V18.251a4.492,4.492,0,0,0,2.948-4.21ZM22.676,5.391A3.824,3.824,0,1,1,26.5,9.215,3.828,3.828,0,0,1,22.676,5.391ZM9.482,14.041a3.824,3.824,0,1,1,3.824,3.824A3.828,3.828,0,0,1,9.482,14.041Zm20.842,23A3.824,3.824,0,1,1,26.5,33.219,3.828,3.828,0,0,1,30.323,37.043Zm9.371-19.178a3.824,3.824,0,1,1,3.824-3.824A3.828,3.828,0,0,1,39.694,17.864Z" transform="translate(-8.817 -0.903)" fill="#1c1c1c"/>
          </g>
        </g>
      </g>
    </g>
  </g>
</svg>
