<svg xmlns="http://www.w3.org/2000/svg" width="47.23" height="33.729" viewBox="0 0 47.23 33.729">
  <g id="lotus_col" transform="translate(0 1.656)">
    <path id="Path_169" data-name="Path 169" d="M22.188,14.08A17.3,17.3,0,0,0,5.874,25.663,15.24,15.24,0,0,0,8.9,28.228c3.8,2.461,7.15,3.065,12.041,3.142l2.486.011v-.01c4.892-.078,8.243-.681,12.042-3.141A15.277,15.277,0,0,0,38.5,25.664,17.3,17.3,0,0,0,22.188,14.08Z" transform="translate(1.427 -4.037)" fill="#f7734f" opacity="0.74"/>
    <path id="Path_170" data-name="Path 170" d="M47.23,32.1c-11.186,0-10.5,4.972-23.615,4.972S11.186,32.1,0,32.1M31.072,23.09c0-6.613-3.27-11.561-7.457-17.09-4.186,5.528-7.457,10.476-7.457,17.09,0,4.738,2.569,9.011,7.457,9.011S31.072,27.828,31.072,23.09ZM19.834,19.464C16.463,15.941,9.938,14.7,2.619,14.7,4.712,21.09,6.1,25.972,11.006,29.149c3.821,2.475,7.068,2.952,12.609,2.952C23.615,26.249,23.559,23.357,19.834,19.464ZM23.615,32.1c5.541,0,8.789-.477,12.61-2.952,4.9-3.177,6.293-8.059,8.386-14.449-7.319,0-13.843,1.24-17.215,4.764C23.671,23.357,23.615,26.249,23.615,32.1ZM19.346,12.214a22.446,22.446,0,0,0-8.16-4.972v8.181m24.857,0V7.243a22.435,22.435,0,0,0-8.16,4.972" transform="translate(0 -6)" fill="none" stroke="#231f20" stroke-miterlimit="10" stroke-width="2" opacity="0.8"/>
  </g>
</svg>
