<svg xmlns="http://www.w3.org/2000/svg" width="41.375" height="40.939" viewBox="0 0 41.375 40.939">
  <g id="mudra_anjali" transform="translate(0 1)">
    <path id="Path_164" data-name="Path 164" d="M34.772,21.386a13.386,13.386,0,1,1-22.495-9.81,20.548,20.548,0,0,1,4.131,3.463S17.735,10.434,21.386,8a13.6,13.6,0,0,1,4.885,7,22.1,22.1,0,0,1,4.22-3.432A13.351,13.351,0,0,1,34.772,21.386Z" transform="translate(-0.699 0.516)" fill="#f7734f" opacity="0.742"/>
    <path id="Path_165" data-name="Path 165" d="M43.375,39.941H32.423c-4.107,0-9.735-2.535-9.735-8.518V8.3A2.435,2.435,0,0,1,25.121,5.87a5.561,5.561,0,0,1,2.434.606V20.47M22.687,8.3V3.436A2.435,2.435,0,0,1,25.121,1a5.561,5.561,0,0,1,2.434.606V11.952S30.23,21.032,32.043,26.4a1.7,1.7,0,0,0,1.6,1.375h9.735M2,39.941H12.952c4.107,0,9.735-2.535,9.735-8.518V8.3A2.435,2.435,0,0,0,20.254,5.87a5.56,5.56,0,0,0-2.434.606V20.47M2,27.772h9.735a1.7,1.7,0,0,0,1.6-1.375c1.813-5.364,4.488-14.445,4.488-14.445V1.608A5.56,5.56,0,0,1,20.254,1a2.435,2.435,0,0,1,2.434,2.434V8.3" transform="translate(-2 -1.002)" fill="none" stroke="#231f20" stroke-miterlimit="10" stroke-width="2" opacity="0.8"/>
  </g>
</svg>
